# Blender 4.2.1 LTS
# www.blender.org
mtllib ring.mtl
o トーラス
v 1.250000 0.000000 0.000000
v 1.000000 0.250000 0.000000
v 0.750000 0.000000 0.000000
v 1.000000 -0.250000 0.000000
v 0.957555 0.000000 -0.803485
v 0.766044 0.250000 -0.642788
v 0.574533 0.000000 -0.482091
v 0.766044 -0.250000 -0.642788
v 0.217060 0.000000 -1.231010
v 0.173648 0.250000 -0.984808
v 0.130236 0.000000 -0.738606
v 0.173648 -0.250000 -0.984808
v -0.625000 0.000000 -1.082532
v -0.500000 0.250000 -0.866026
v -0.375000 0.000000 -0.649519
v -0.500000 -0.250000 -0.866026
v -1.174616 0.000000 -0.427526
v -0.939692 0.250000 -0.342020
v -0.704769 0.000000 -0.256515
v -0.939692 -0.250000 -0.342020
v -1.174616 0.000000 0.427525
v -0.939693 0.250000 0.342020
v -0.704769 0.000000 0.256515
v -0.939693 -0.250000 0.342020
v -0.625000 0.000000 1.082532
v -0.500000 0.250000 0.866026
v -0.375000 0.000000 0.649519
v -0.500000 -0.250000 0.866026
v 0.217060 0.000000 1.231010
v 0.173648 0.250000 0.984808
v 0.130236 0.000000 0.738606
v 0.173648 -0.250000 0.984808
v 0.957555 0.000000 0.803485
v 0.766044 0.250000 0.642788
v 0.574533 0.000000 0.482091
v 0.766044 -0.250000 0.642788
vn 0.6848 0.6848 -0.2492
vn -0.6848 0.6848 0.2492
vn -0.6848 -0.6848 0.2492
vn 0.6848 -0.6848 -0.2492
vn 0.3644 0.6848 -0.6311
vn -0.3644 0.6848 0.6311
vn -0.3644 -0.6848 0.6311
vn 0.3644 -0.6848 -0.6311
vn -0.1265 0.6848 -0.7177
vn 0.1265 0.6848 0.7177
vn 0.1265 -0.6848 0.7177
vn -0.1265 -0.6848 -0.7177
vn -0.5582 0.6848 -0.4684
vn 0.5582 0.6848 0.4684
vn 0.5582 -0.6848 0.4684
vn -0.5582 -0.6848 -0.4684
vn -0.7287 0.6848 -0.0000
vn 0.7287 0.6848 -0.0000
vn 0.7287 -0.6848 -0.0000
vn -0.7287 -0.6848 -0.0000
vn -0.5582 0.6848 0.4684
vn 0.5582 0.6848 -0.4684
vn 0.5582 -0.6848 -0.4684
vn -0.5582 -0.6848 0.4684
vn -0.1265 0.6848 0.7177
vn 0.1265 0.6848 -0.7177
vn 0.1265 -0.6848 -0.7177
vn -0.1265 -0.6848 0.7177
vn 0.3644 0.6848 0.6311
vn -0.3644 0.6848 -0.6311
vn -0.3644 -0.6848 -0.6311
vn 0.3644 -0.6848 0.6311
vn 0.6848 0.6848 0.2492
vn -0.6848 0.6848 -0.2492
vn -0.6848 -0.6848 -0.2492
vn 0.6848 -0.6848 0.2492
vt 0.555556 0.500000
vt 0.666667 0.500000
vt 0.666667 0.750000
vt 0.555556 0.750000
vt 0.666667 1.000000
vt 0.555556 1.000000
vt 0.555556 0.000000
vt 0.666667 0.000000
vt 0.666667 0.250000
vt 0.555556 0.250000
vt 0.777778 0.500000
vt 0.777778 0.750000
vt 0.777778 1.000000
vt 0.777778 0.000000
vt 0.777778 0.250000
vt 0.888889 0.500000
vt 0.888889 0.750000
vt 0.888889 1.000000
vt 0.888889 0.000000
vt 0.888889 0.250000
vt 1.000000 0.500000
vt 1.000000 0.750000
vt 1.000000 1.000000
vt 1.000000 0.000000
vt 1.000000 0.250000
vt 0.000000 0.500000
vt 0.111111 0.500000
vt 0.111111 0.750000
vt 0.000000 0.750000
vt 0.111111 1.000000
vt 0.000000 1.000000
vt 0.000000 0.000000
vt 0.111111 0.000000
vt 0.111111 0.250000
vt 0.000000 0.250000
vt 0.222222 0.500000
vt 0.222222 0.750000
vt 0.222222 1.000000
vt 0.222222 0.000000
vt 0.222222 0.250000
vt 0.333333 0.500000
vt 0.333333 0.750000
vt 0.333333 1.000000
vt 0.333333 0.000000
vt 0.333333 0.250000
vt 0.444444 0.500000
vt 0.444444 0.750000
vt 0.444444 1.000000
vt 0.444444 0.000000
vt 0.444444 0.250000
s 0
usemtl test_material
f 1/1/1 5/2/1 6/3/1 2/4/1
f 2/4/2 6/3/2 7/5/2 3/6/2
f 3/7/3 7/8/3 8/9/3 4/10/3
f 4/10/4 8/9/4 5/2/4 1/1/4
f 5/2/5 9/11/5 10/12/5 6/3/5
f 6/3/6 10/12/6 11/13/6 7/5/6
f 7/8/7 11/14/7 12/15/7 8/9/7
f 8/9/8 12/15/8 9/11/8 5/2/8
f 9/11/9 13/16/9 14/17/9 10/12/9
f 10/12/10 14/17/10 15/18/10 11/13/10
f 11/14/11 15/19/11 16/20/11 12/15/11
f 12/15/12 16/20/12 13/16/12 9/11/12
f 13/16/13 17/21/13 18/22/13 14/17/13
f 14/17/14 18/22/14 19/23/14 15/18/14
f 15/19/15 19/24/15 20/25/15 16/20/15
f 16/20/16 20/25/16 17/21/16 13/16/16
f 17/26/17 21/27/17 22/28/17 18/29/17
f 18/29/18 22/28/18 23/30/18 19/31/18
f 19/32/19 23/33/19 24/34/19 20/35/19
f 20/35/20 24/34/20 21/27/20 17/26/20
f 21/27/21 25/36/21 26/37/21 22/28/21
f 22/28/22 26/37/22 27/38/22 23/30/22
f 23/33/23 27/39/23 28/40/23 24/34/23
f 24/34/24 28/40/24 25/36/24 21/27/24
f 25/36/25 29/41/25 30/42/25 26/37/25
f 26/37/26 30/42/26 31/43/26 27/38/26
f 27/39/27 31/44/27 32/45/27 28/40/27
f 28/40/28 32/45/28 29/41/28 25/36/28
f 29/41/29 33/46/29 34/47/29 30/42/29
f 30/42/30 34/47/30 35/48/30 31/43/30
f 31/44/31 35/49/31 36/50/31 32/45/31
f 32/45/32 36/50/32 33/46/32 29/41/32
f 33/46/33 1/1/33 2/4/33 34/47/33
f 34/47/34 2/4/34 3/6/34 35/48/34
f 35/49/35 3/7/35 4/10/35 36/50/35
f 36/50/36 4/10/36 1/1/36 33/46/36
